{"accessors":[{"bufferView":2,"componentType":5126,"count":65,"max":[132.24684143066406,132.24684143066406,0],"min":[-132.24684143066406,-132.24684143066406,0],"type":"VEC3"},{"bufferView":2,"byteOffset":780,"componentType":5126,"count":65,"max":[0,0,1],"min":[0,0,1],"type":"VEC3"},{"bufferView":1,"componentType":5126,"count":65,"max":[1,1],"min":[6.854534007061375e-8,6.854533296518639e-8],"type":"VEC2"},{"bufferView":0,"componentType":5125,"count":288,"max":[64],"min":[0],"type":"SCALAR"},{"bufferView":2,"byteOffset":1560,"componentType":5126,"count":3484,"max":[20.213245391845703,24.751155853271484,131.09548950195312],"min":[-20.2205867767334,-15.161110877990723,0.05070208013057709],"type":"VEC3"},{"bufferView":2,"byteOffset":43368,"componentType":5126,"count":3484,"max":[0.9998874068260193,0.9999153017997742,0.9998340010643005],"min":[-0.9998874068260193,-0.9998534321784973,-0.999931812286377],"type":"VEC3"},{"bufferView":3,"componentType":5126,"count":3484,"max":[0.9999991059303284,0.9999788999557495,0.9999339580535889,1],"min":[-0.9999944567680359,-0.9999226331710815,-0.9997570514678955,-1],"type":"VEC4"},{"bufferView":1,"byteOffset":520,"componentType":5126,"count":3484,"max":[0.9984602928161621,0.9982348680496216],"min":[0.0019960403442382812,0.0013086071703583002],"type":"VEC2"},{"bufferView":0,"byteOffset":1152,"componentType":5125,"count":15429,"max":[3483],"min":[0],"type":"SCALAR"}],"asset":{"extras":{"author":"jetsu (https://sketchfab.com/jetsu)","license":"CC-BY-4.0 (http://creativecommons.org/licenses/by/4.0/)","source":"https://sketchfab.com/3d-models/boy-528bcfc73ba94870ac8e7164a36b5c41","title":"Boy"},"generator":"Sketchfab-8.87.0","version":"2.0"},"bufferViews":[{"buffer":0,"byteLength":62868,"byteOffset":0,"name":"floatBufferViews","target":34963},{"buffer":0,"byteLength":28392,"byteOffset":62868,"byteStride":8,"name":"floatBufferViews","target":34962},{"buffer":0,"byteLength":85176,"byteOffset":91260,"byteStride":12,"name":"floatBufferViews","target":34962},{"buffer":0,"byteLength":55744,"byteOffset":176436,"byteStride":16,"name":"floatBufferViews","target":34962}],"buffers":[{"byteLength":232180,"uri":"data:application/octet-stream;base64,"}],"images":[{"uri":"data:application/octet-stream;base64,"},{"uri":"data:application/octet-stream;base64,"},{"uri":"data:application/octet-stream;base64,"},{"uri":"data:application/octet-stream;base64,"}],"materials":[{"alphaMode":"BLEND","doubleSided":true,"name":"floor","pbrMetallicRoughness":{"baseColorFactor":[1,1,1,1],"baseColorTexture":{"index":0,"texCoord":0},"metallicFactor":0,"roughnessFactor":0.8929713596497552}},{"doubleSided":true,"name":"material","normalTexture":{"index":3,"scale":1,"texCoord":0},"pbrMetallicRoughness":{"baseColorFactor":[1,1,1,1],"baseColorTexture":{"index":1,"texCoord":0},"metallicFactor":0,"metallicRoughnessTexture":{"index":2,"texCoord":0},"roughnessFactor":1}}],"meshes":[{"name":"floor_floor_0","primitives":[{"attributes":{"NORMAL":1,"POSITION":0,"TEXCOORD_0":2},"indices":3,"material":0,"mode":4}]},{"name":"boy_boy_0","primitives":[{"attributes":{"NORMAL":5,"POSITION":4,"TANGENT":6,"TEXCOORD_0":7},"indices":8,"material":1,"mode":4}]}],"nodes":[{"children":[1],"name":"RootNode (gltf orientation matrix)","rotation":[-0.7071067811865475,0,0,0.7071067811865476]},{"children":[2],"name":"RootNode (model correction matrix)"},{"children":[3],"matrix":[1,0,0,0,0,0,1,0,0,-1,0,0,0,0,0,1],"name":"boy.fbx"},{"children":[4,6],"name":"RootNode"},{"children":[5],"matrix":[1,0,0,0,0,2.220446049250313e-16,-1,0,0,1,2.220446049250313e-16,0,0,0,0,1],"name":"floor"},{"mesh":0,"name":"floor_floor_0"},{"children":[7],"matrix":[1,0,0,0,0,2.220446049250313e-16,-1,0,0,1,2.220446049250313e-16,0,0,0,0,1],"name":"boy"},{"mesh":1,"name":"boy_boy_0"}],"samplers":[{"magFilter":9729,"minFilter":9987,"wrapS":10497,"wrapT":10497}],"scene":0,"scenes":[{"name":"OSG_Scene","nodes":[0]}],"textures":[{"sampler":0,"source":0},{"sampler":0,"source":1},{"sampler":0,"source":2},{"sampler":0,"source":3}]}